<!-- icon666.com - MILLIONS vector ICONS FREE --><svg viewBox="0 0 24 24" xmlns="http://www.w3.org/2000/svg" xmlns:xlink="http://www.w3.org/1999/xlink"><linearGradient id="New_Gradient_Swatch_copy" gradientUnits="userSpaceOnUse" x1="15.826" x2="8.174" y1="20.419" y2="12.768"><stop offset="0" stop-color="#629ad3"></stop><stop offset="1" stop-color="#79aed4"></stop></linearGradient><linearGradient id="New_Gradient_Swatch" gradientUnits="userSpaceOnUse" x1="18.686" x2="5.314" y1="18.814" y2="5.443"><stop offset="0" stop-color="#eb595a"></stop><stop offset="1" stop-color="#f18875"></stop></linearGradient><g id="_01" data-name="01"><path d="m11 23.5a4.506 4.506 0 0 1 -4.472-4h-.528a4.135 4.135 0 0 1 -4.5-4.5v-5c0-2.666 1.505-4.315 4.053-4.485a2.57 2.57 0 0 1 -.053-.515 4.505 4.505 0 0 1 4.5-4.5h4a4.505 4.505 0 0 1 4.5 4.5 2.57 2.57 0 0 1 -.053.515c2.553.17 4.053 1.819 4.053 4.485v5a4.135 4.135 0 0 1 -4.5 4.5h-.528a4.506 4.506 0 0 1 -4.472 4z" fill="#fff"></path><path d="m17.75 15a.755.755 0 0 0 -.75-.75h-10a.75.75 0 0 0 0 1.5h1v3.25a3 3 0 0 0 3 3h2a3 3 0 0 0 3-3v-3.25h1a.755.755 0 0 0 .75-.75z" fill="url(#New_Gradient_Swatch_copy)"></path><path d="m7 5a3 3 0 0 1 3-3h4a3 3 0 0 1 3 3 1 1 0 0 1 -1 1h-8a1 1 0 0 1 -1-1zm11 2h-12a2.652 2.652 0 0 0 -3 3v5a2.652 2.652 0 0 0 3 3h1v-1.25a1.75 1.75 0 0 1 0-3.5h10a1.75 1.75 0 0 1 0 3.5v1.25h1a2.652 2.652 0 0 0 3-3v-5a2.652 2.652 0 0 0 -3-3zm-8 4.75h-3a.75.75 0 0 1 0-1.5h3a.75.75 0 0 1 0 1.5z" fill="url(#New_Gradient_Swatch)"></path></g></svg>